<?xml version="1.0" encoding="UTF-8"?>
<svg xmlns="http://www.w3.org/2000/svg" xmlns:xlink="http://www.w3.org/1999/xlink" width="32" height="32" viewBox="0 0 32 32">
<path fill-rule="nonzero" fill="rgb(7.058824%, 3.137255%, 12.54902%)" fill-opacity="1" d="M 32 16 C 32 24.835938 24.835938 32 16 32 C 7.164062 32 0 24.835938 0 16 C 0 7.164062 7.164062 0 16 0 C 24.835938 0 32 7.164062 32 16 Z M 32 16 "/>
<path fill-rule="nonzero" fill="rgb(10.196078%, 3.921569%, 18.039216%)" fill-opacity="1" d="M 30.375 16 C 30.375 23.9375 23.9375 30.375 16 30.375 C 8.0625 30.375 1.625 23.9375 1.625 16 C 1.625 8.0625 8.0625 1.625 16 1.625 C 23.9375 1.625 30.375 8.0625 30.375 16 Z M 30.375 16 "/>
<path fill-rule="nonzero" fill="rgb(60.784314%, 43.529412%, 100%)" fill-opacity="1" d="M 16.625 16 C 16.625 16.832031 15.375 16.832031 15.375 16 C 15.375 15.167969 16.625 15.167969 16.625 16 Z M 16.625 16 "/>
<path fill="none" stroke-width="14" stroke-linecap="round" stroke-linejoin="miter" stroke="rgb(60.784314%, 43.529412%, 100%)" stroke-opacity="1" stroke-miterlimit="4" d="M 256 206 C 283.625 206 306 228.375 306 256 C 306 283.625 283.625 306 256 306 " transform="matrix(0.0625, 0, 0, 0.0625, 0, 0)"/>
<path fill="none" stroke-width="14" stroke-linecap="round" stroke-linejoin="miter" stroke="rgb(60.784314%, 43.529412%, 100%)" stroke-opacity="1" stroke-miterlimit="4" d="M 256 206 C 228.375 206 206 228.375 206 256 C 206 283.625 228.375 306 256 306 " transform="matrix(0.0625, 0, 0, 0.0625, 0, 0)"/>
<path fill="none" stroke-width="11" stroke-linecap="round" stroke-linejoin="miter" stroke="rgb(54.509804%, 37.254902%, 93.72549%)" stroke-opacity="0.9" stroke-miterlimit="4" d="M 256 178 C 299.0625 178 334 212.9375 334 256 C 334 299.0625 299.0625 334 256 334 " transform="matrix(0.0625, 0, 0, 0.0625, 0, 0)"/>
<path fill="none" stroke-width="11" stroke-linecap="round" stroke-linejoin="miter" stroke="rgb(54.509804%, 37.254902%, 93.72549%)" stroke-opacity="0.9" stroke-miterlimit="4" d="M 256 178 C 212.9375 178 178 212.9375 178 256 C 178 299.0625 212.9375 334 256 334 " transform="matrix(0.0625, 0, 0, 0.0625, 0, 0)"/>
<path fill="none" stroke-width="9" stroke-linecap="round" stroke-linejoin="miter" stroke="rgb(48.235294%, 30.980392%, 87.45098%)" stroke-opacity="0.78" stroke-miterlimit="4" d="M 256 150 C 314.5625 150 362 197.4375 362 256 C 362 314.5625 314.5625 362 256 362 " transform="matrix(0.0625, 0, 0, 0.0625, 0, 0)"/>
<path fill="none" stroke-width="9" stroke-linecap="round" stroke-linejoin="miter" stroke="rgb(48.235294%, 30.980392%, 87.45098%)" stroke-opacity="0.78" stroke-miterlimit="4" d="M 256 150 C 197.4375 150 150 197.4375 150 256 C 150 314.5625 197.4375 362 256 362 " transform="matrix(0.0625, 0, 0, 0.0625, 0, 0)"/>
<path fill="none" stroke-width="7.5" stroke-linecap="round" stroke-linejoin="miter" stroke="rgb(42.352941%, 23.529412%, 88.235294%)" stroke-opacity="0.64" stroke-miterlimit="4" d="M 256 122 C 330 122 390 182 390 256 C 390 330 330 390 256 390 " transform="matrix(0.0625, 0, 0, 0.0625, 0, 0)"/>
<path fill="none" stroke-width="7.5" stroke-linecap="round" stroke-linejoin="miter" stroke="rgb(42.352941%, 23.529412%, 88.235294%)" stroke-opacity="0.64" stroke-miterlimit="4" d="M 256 122 C 182 122 122 182 122 256 C 122 330 182 390 256 390 " transform="matrix(0.0625, 0, 0, 0.0625, 0, 0)"/>
<path fill="none" stroke-width="6" stroke-linecap="round" stroke-linejoin="miter" stroke="rgb(36.078431%, 17.254902%, 75.686275%)" stroke-opacity="0.48" stroke-miterlimit="4" d="M 256 96 C 344.375 96 416 167.625 416 256 C 416 344.375 344.375 416 256 416 " transform="matrix(0.0625, 0, 0, 0.0625, 0, 0)"/>
<path fill="none" stroke-width="6" stroke-linecap="round" stroke-linejoin="miter" stroke="rgb(36.078431%, 17.254902%, 75.686275%)" stroke-opacity="0.48" stroke-miterlimit="4" d="M 256 96 C 167.625 96 96 167.625 96 256 C 96 344.375 167.625 416 256 416 " transform="matrix(0.0625, 0, 0, 0.0625, 0, 0)"/>
<path fill="none" stroke-width="4.5" stroke-linecap="round" stroke-linejoin="miter" stroke="rgb(29.803922%, 10.980392%, 63.137255%)" stroke-opacity="0.32" stroke-miterlimit="4" d="M 256 72 C 357.625 72 440 154.375 440 256 C 440 357.625 357.625 440 256 440 " transform="matrix(0.0625, 0, 0, 0.0625, 0, 0)"/>
<path fill="none" stroke-width="4.5" stroke-linecap="round" stroke-linejoin="miter" stroke="rgb(29.803922%, 10.980392%, 63.137255%)" stroke-opacity="0.32" stroke-miterlimit="4" d="M 256 72 C 154.375 72 72 154.375 72 256 C 72 357.625 154.375 440 256 440 " transform="matrix(0.0625, 0, 0, 0.0625, 0, 0)"/>
<path fill="none" stroke-width="3" stroke-linecap="round" stroke-linejoin="miter" stroke="rgb(23.529412%, 4.705882%, 50.588235%)" stroke-opacity="0.18" stroke-miterlimit="4" d="M 256 50 C 369.75 50 462 142.25 462 256 C 462 369.75 369.75 462 256 462 " transform="matrix(0.0625, 0, 0, 0.0625, 0, 0)"/>
<path fill="none" stroke-width="3" stroke-linecap="round" stroke-linejoin="miter" stroke="rgb(23.529412%, 4.705882%, 50.588235%)" stroke-opacity="0.18" stroke-miterlimit="4" d="M 256 50 C 142.25 50 50 142.25 50 256 C 50 369.75 142.25 462 256 462 " transform="matrix(0.0625, 0, 0, 0.0625, 0, 0)"/>
<path fill="none" stroke-width="1.5" stroke-linecap="butt" stroke-linejoin="miter" stroke="rgb(42.352941%, 23.529412%, 88.235294%)" stroke-opacity="0.25" stroke-miterlimit="4" d="M 501 256 C 501 391.3125 391.3125 501 256 501 C 120.6875 501 11 391.3125 11 256 C 11 120.6875 120.6875 11 256 11 C 391.3125 11 501 120.6875 501 256 Z M 501 256 " transform="matrix(0.0625, 0, 0, 0.0625, 0, 0)"/>
<path fill-rule="nonzero" fill="rgb(42.352941%, 23.529412%, 88.235294%)" fill-opacity="0.15" d="M 17.375 16 C 17.375 17.832031 14.625 17.832031 14.625 16 C 14.625 14.167969 17.375 14.167969 17.375 16 Z M 17.375 16 "/>
<path fill-rule="nonzero" fill="rgb(76.862745%, 62.745098%, 100%)" fill-opacity="0.9" d="M 16.625 16 C 16.625 16.832031 15.375 16.832031 15.375 16 C 15.375 15.167969 16.625 15.167969 16.625 16 Z M 16.625 16 "/>
<path fill-rule="nonzero" fill="rgb(100%, 100%, 100%)" fill-opacity="0.8" d="M 16.3125 16 C 16.3125 16.417969 15.6875 16.417969 15.6875 16 C 15.6875 15.582031 16.3125 15.582031 16.3125 16 Z M 16.3125 16 "/>
</svg>
